<?xml version="1.0" encoding="UTF-8"?>
<svg id="Camada_2" data-name="Camada 2" xmlns="http://www.w3.org/2000/svg" viewBox="0 0 536 536">
  <defs>
    <style>
      .cls-1 {
        fill: gray;
      }

      .cls-1, .cls-2 {
        stroke-width: 0px;
      }

      .cls-2 {
        fill: #b3b3b3;
      }
    </style>
  </defs>
  <g id="Camada_1-2" data-name="Camada 1">
    <g>
      <path class="cls-1" d="m268,536c-71.59,0-138.89-27.88-189.5-78.5C27.88,406.89,0,339.58,0,268S27.88,129.11,78.5,78.5C129.11,27.88,196.41,0,268,0s138.89,27.88,189.5,78.5c50.62,50.62,78.5,117.92,78.5,189.5s-27.88,138.89-78.5,189.5c-50.62,50.62-117.92,78.5-189.5,78.5Z"/>
      <path class="cls-2" d="m268,534.5c35.98,0,70.88-7.05,103.73-20.94,9.72-4.11,19.14-8.77,28.23-13.96-.77-83.53-25.99-156.48-63.5-197.06-19.35,15.53-43.21,23.96-68.38,23.96s-49.11-8.47-68.47-24.04c-37.55,40.57-62.81,113.55-63.58,197.14,9.09,5.18,18.51,9.85,28.23,13.96,32.85,13.9,67.75,20.94,103.73,20.94Z"/>
      <g>
        <path class="cls-2" d="m267.85,148.62c35.44,1.27,70.43-5.71,90.23-10.63-.17-.33-.35-.65-.51-.99l-32.19-69.53c-5.84-12.62-18.48-20.69-32.38-20.69h-50.5c-13.9,0-26.54,8.07-32.38,20.69l-32.07,69.27c18.68,4.08,53.31,10.56,89.8,11.87Z"/>
        <g>
          <path class="cls-2" d="m421.94,93.93c-3.23.16-5.77,2.87-5.99,6.1-.85,12.48-5.95,40.44-34.25,49.01-7.21,2.18-14.8.02-19.93-5.04-18.14,4.63-50.95,11.54-85.35,11.54-2.92,0-5.85-.05-8.79-.15-38.31-1.37-74.58-8.37-92.93-12.46-5.11,5.82-13.23,8.45-20.93,6.12-28.3-8.57-33.4-36.53-34.25-49.01-.22-3.23-2.76-5.94-5.99-6.1-3.97-.2-7.09,3.25-6.59,7.14,7.56,58.7,62.43,68.93,62.43,68.93l54.39,14.02c7.96,2.64,16.3,3.98,24.69,3.98h39.22c8.49,0,16.92-1.38,24.96-4.07l53.46-13.93s54.87-10.23,62.43-68.93c.5-3.89-2.62-7.33-6.59-7.14Z"/>
          <path class="cls-2" d="m313.07,185.36c-8.2,2.74-16.74,4.14-25.39,4.14h-39.22c-8.55,0-17-1.36-25.11-4.04l-51.52-13.28c-6.62,13.88-10.34,29.41-10.34,45.82,0,58.82,47.68,106.5,106.5,106.5s106.5-47.68,106.5-106.5c0-16.45-3.73-32.02-10.39-45.93l-51.04,13.3Z"/>
        </g>
      </g>
    </g>
  </g>
</svg>